<svg width="25" height="25" viewBox="0 0 25 25" fill="none" xmlns="http://www.w3.org/2000/svg">
<path d="M23.4936 1.1769C22.6852 0.439375 21.6105 0 20.4293 0H4.54742C2.07188 0 0.0589801 1.96745 0.00162331 4.42892C0.0010822 4.47221 0 4.50468 0 4.54742V20.3481C0 22.8594 2.03563 24.8956 4.54742 24.8956H20.4526C22.9655 24.8956 25 22.8589 25 20.3481V4.54742C25 3.20549 24.4178 2.00965 23.4936 1.1769ZM16.6952 7.9845C16.6952 10.3275 14.7959 12.2262 12.454 12.2262C10.1127 12.2262 8.21339 10.3275 8.21339 7.9845C8.21339 5.64261 10.1127 3.74334 12.454 3.74334C14.797 3.7428 16.6952 5.64207 16.6952 7.9845ZM7.63603 21.6392C6.55112 21.6392 5.67183 20.7599 5.67183 19.675V18.5674C5.67183 16.1936 7.61168 14.2862 9.98496 14.2862H14.9236C17.2974 14.2862 19.2216 16.1925 19.2216 18.5674V19.675C19.2216 20.7599 18.3423 21.6392 17.2579 21.6392H7.63603Z" fill="white"/>
</svg>
