<svg width="20" height="20" viewBox="0 0 20 20" fill="none" xmlns="http://www.w3.org/2000/svg">
<path d="M17.0711 2.92892C15.1823 1.04019 12.6711 0 10 0C7.59552 0 5.27191 0.865631 3.45703 2.43759C3.33298 2.54501 3.31955 2.7327 3.42697 2.8566C3.53439 2.98065 3.72192 2.99408 3.84598 2.88666C5.55283 1.40823 7.73834 0.594025 10 0.594025C12.5124 0.594025 14.8744 1.57242 16.651 3.349C18.4276 5.12558 19.406 7.48764 19.406 10C19.406 12.5124 18.4276 14.8744 16.651 16.651C14.8744 18.4276 12.5124 19.406 10 19.406C7.48764 19.406 5.12558 18.4276 3.349 16.651C1.57242 14.8744 0.594025 12.5124 0.594025 10C0.594025 7.66312 1.4566 5.42282 3.02307 3.69202C3.13309 3.5704 3.12363 3.38257 3.00201 3.2724C2.8804 3.16238 2.69257 3.17169 2.58255 3.29346C0.917206 5.13367 0 7.51541 0 10C0 12.6711 1.04019 15.1823 2.92892 17.0711C4.81766 18.9598 7.32895 20 10 20C12.6711 20 15.1823 18.9598 17.0711 17.0711C18.9598 15.1823 20 12.6711 20 10C20 7.32895 18.9598 4.81766 17.0711 2.92892Z" fill="white"/>
<path d="M9.62238 13.5596C8.70517 13.5596 7.95886 14.314 7.95886 15.2411C7.95886 16.1682 8.70517 16.9226 9.62238 16.9226C10.0727 16.9226 10.4967 16.7435 10.8164 16.418C11.1261 16.1026 11.3039 15.6737 11.3039 15.2411C11.3039 14.7966 11.1277 14.3756 10.8078 14.0556C10.4879 13.7358 10.0669 13.5596 9.62238 13.5596ZM9.62238 16.3286C9.03262 16.3286 8.55289 15.8408 8.55289 15.2411C8.55289 14.6414 9.03262 14.1536 9.62238 14.1536C10.2118 14.1536 10.7097 14.6516 10.7097 15.2411C10.7097 15.8305 10.2118 16.3286 9.62238 16.3286Z" fill="white"/>
<path d="M12.4846 8.92077C12.6083 9.0288 12.7958 9.01598 12.9037 8.89238C13.6195 8.07238 13.9825 7.21392 13.9825 6.34096C13.9825 5.4204 13.569 4.5859 12.8183 3.99126C12.0636 3.39357 11.0394 3.07772 9.85623 3.07772C8.39261 3.07772 7.4873 3.5718 6.98575 3.98623C6.37921 4.48732 6.01697 5.15932 6.01697 5.78371C6.01697 6.1896 6.18314 6.54711 6.48495 6.79049C6.73337 6.99083 7.06418 7.10573 7.39285 7.10573C7.95911 7.10573 8.20737 6.73967 8.4068 6.44549C8.65948 6.07302 8.89798 5.72115 9.80206 5.72115C10.112 5.72115 11.1232 5.78798 11.1232 6.64675C11.1232 7.29494 10.524 7.75499 9.99524 8.16088C9.86462 8.26098 9.74133 8.35573 9.62628 8.45339C9.01746 8.97814 8.31845 9.78869 8.31845 11.4115C8.31845 12.3128 8.53711 12.9132 9.60446 12.9132C10.0772 12.9132 10.4341 12.8061 10.6653 12.5949C10.8593 12.4176 10.962 12.17 10.962 11.8787C10.962 11.0031 10.962 10.5637 11.855 9.86528L11.8702 9.85338C11.9096 9.82271 11.9551 9.78716 12.0051 9.74672C12.1328 9.64373 12.1528 9.45681 12.0498 9.32909C11.9468 9.20138 11.7599 9.18139 11.6322 9.28438C11.5847 9.32268 11.5419 9.3561 11.5048 9.38509L11.4891 9.3973C10.42 10.2335 10.368 10.8541 10.368 11.8788C10.368 12.0105 10.368 12.3192 9.60446 12.3192C9.23154 12.3192 9.11801 12.2412 9.06079 12.1732C8.961 12.0546 8.91248 11.8054 8.91248 11.4115C8.91248 10.038 9.46942 9.37288 10.0123 8.9049C10.1147 8.81807 10.2324 8.72774 10.357 8.63207C10.963 8.16683 11.7173 7.58776 11.7173 6.64675C11.7173 5.72359 10.9655 5.12713 9.80206 5.12713C8.58319 5.12713 8.19714 5.69643 7.91516 6.11208C7.72244 6.39635 7.63455 6.51171 7.39285 6.51171C7.07867 6.51171 6.61115 6.31777 6.61115 5.78371C6.61115 5.43688 6.8089 4.90282 7.36417 4.44414C7.7908 4.09182 8.56931 3.67159 9.85638 3.67159C11.9362 3.67159 13.3885 4.76931 13.3885 6.34096C13.3885 7.06606 13.0749 7.79299 12.4563 8.50176C12.3483 8.62536 12.3611 8.81289 12.4846 8.92077Z" fill="white"/>
</svg>
