<svg width="25" height="25" viewBox="0 0 25 25" fill="none" xmlns="http://www.w3.org/2000/svg">
<g clip-path="url(#clip0)">
<path d="M24.6567 2.47804C24.4415 2.33307 24.1661 2.30255 23.9289 2.39945L16.4063 5.4085L8.88366 2.39945C8.69748 2.32467 8.48999 2.32467 8.30381 2.39945L0.491335 5.52443C0.194569 5.64346 0 5.93031 0 6.25001V21.875C0 22.1344 0.12895 22.3763 0.34331 22.522C0.474549 22.6105 0.627104 22.6563 0.781233 22.6563C0.879663 22.6563 0.978092 22.638 1.07113 22.6006L8.59371 19.5916L16.1163 22.6006C16.3025 22.6753 16.51 22.6753 16.6962 22.6006L24.5087 19.4756C24.8054 19.3565 25 19.0697 25 18.75V3.12498C25 2.86561 24.871 2.62373 24.6567 2.47804ZM9.37499 4.27905L15.625 6.77902V20.721L9.37499 18.221V4.27905ZM1.56251 6.77874L7.81253 4.27895V18.221L1.56251 20.7214V6.77874ZM23.4375 18.2213L17.1875 20.7211V6.77898L23.4375 4.27857V18.2213Z" fill="#ffffff"/>
</g>
<defs>
<clipPath id="clip0">
<rect width="25" height="25" fill="white"/>
</clipPath>
</defs>
</svg>
