<svg width="20" height="21" viewBox="0 0 20 21" fill="none" xmlns="http://www.w3.org/2000/svg">
<path d="M19.9971 18.0012L19.9054 16.8973C19.5285 12.3644 19.5303 7.76728 19.9105 3.23421L19.9966 2.20638C20.034 1.76152 19.7081 1.35511 19.268 1.29193C19.2853 0.622535 18.8737 0 18.1439 0C17.4125 0 17.0023 0.623771 17.0195 1.29391C16.5918 1.3624 16.2748 1.75583 16.303 2.19006L16.3425 2.80258H15.4597C15.0004 2.80258 14.8853 3.6468 14.7719 3.97643C14.6668 3.64816 14.5687 2.80258 14.1056 2.80258H12.4327C12.1762 2.80258 11.8881 3.08893 11.6881 3.22469C11.5213 3.07768 11.3022 2.80258 11.0586 2.80258H10.0828C9.76654 2.80258 9.42888 3.30407 9.23254 3.50709C9.10011 3.36453 8.97103 3.16003 8.75874 3.1332L6.16981 2.80567C5.96964 2.78008 5.78133 2.90941 5.73299 3.10587L5.61615 3.58313C5.48719 3.32064 5.34574 2.80246 4.98471 2.80246H3.64555L3.6955 2.20626C3.73284 1.76152 3.4068 1.35511 2.96688 1.29193C2.98394 0.622535 2.57259 0 1.84249 0C1.11127 0 0.70103 0.623771 0.71834 1.29391C0.290664 1.3624 -0.0262288 1.75583 0.00171411 2.19006L0.170856 4.8073C0.398108 8.32156 0.398108 11.8853 0.170856 15.3997L0.00171411 18.0169C-0.0262288 18.4511 0.290664 18.8447 0.71834 18.9131C0.700659 19.5865 1.10348 20.218 1.84261 20.218C2.5805 20.218 2.98444 19.5878 2.96688 18.9149C3.4068 18.852 3.73296 18.4459 3.696 18.0012L3.65532 17.5098H4.66621C4.94403 17.5098 5.18587 17.282 5.40509 17.1389C5.70603 16.9427 6.02095 16.7658 6.32931 16.5814C6.5081 16.8643 6.72026 17.5098 7.13558 17.5098H9.72438C10.1891 17.5098 10.5433 16.4511 10.7283 16.1152C10.9707 16.4449 11.4854 17.5098 11.9549 17.5098H13.7471C14.1151 17.5098 14.3007 16.935 14.448 16.6697C14.7053 16.8998 15.1611 17.5098 15.5394 17.5098H16.3357L16.303 18.0168C16.2749 18.451 16.5918 18.8447 17.0195 18.9129C17.0019 19.5864 17.4046 20.2177 18.1439 20.2177C18.8816 20.2177 19.2857 19.5878 19.2681 18.9149C19.7079 18.852 20.0342 18.4459 19.9971 18.0012ZM19.1477 2.07977C19.18 2.07977 19.2057 2.10772 19.2031 2.13974L19.1168 3.16757C18.7328 7.74477 18.731 12.3863 19.1116 16.9634L19.2033 18.0672C19.2047 18.0833 19.1999 18.0976 19.1889 18.1095C19.1781 18.1214 19.1644 18.1272 19.1482 18.1272H17.1532C17.1373 18.1272 17.1236 18.1214 17.1128 18.1098C17.1018 18.0983 17.097 18.0842 17.0979 18.0683L17.2671 15.4511C17.4965 11.9027 17.4965 8.30438 17.2671 4.75587L17.0979 2.13875C17.0959 2.1071 17.1215 2.07977 17.1532 2.07977H19.1477ZM17.8161 1.1244C17.8161 0.701665 18.4715 0.701665 18.4715 1.1244V1.28315H17.8161V1.1244ZM2.84658 2.07977C2.8786 2.07977 2.90432 2.10772 2.90172 2.13974L2.81555 3.16757C2.43164 7.74453 2.42991 12.3861 2.81023 16.9634L2.90209 18.0672C2.90481 18.0992 2.87897 18.1272 2.84683 18.1272H0.851872C0.820344 18.1272 0.794503 18.0999 0.796605 18.0683L0.965746 15.4511C1.1951 11.9027 1.1951 8.30438 0.965746 4.75587L0.796605 2.13887C0.794503 2.1071 0.820097 2.07977 0.851872 2.07977H2.84658ZM1.51484 1.1244C1.51484 0.701665 2.17026 0.701665 2.17026 1.1244V1.28315H1.51484V1.1244ZM2.17026 19.0936C2.17026 19.5162 1.51484 19.5162 1.51484 19.0936V18.9348H2.17026V19.0936ZM15.6916 16.7135L14.6072 15.7434C14.4205 15.5766 14.1133 15.6312 13.9935 15.8471L13.5126 16.7135H12.1563L11.0012 15.1414C10.8338 14.9138 10.4687 14.9359 10.3315 15.185L9.48921 16.7135H7.35492L6.79519 15.8277C6.67959 15.6448 6.4396 15.5876 6.25401 15.6985L4.55629 16.7135H3.58991C3.23803 12.3613 3.23518 7.95262 3.58064 3.5992H4.73656L5.38395 4.91858C5.54419 5.24536 6.04172 5.19133 6.12839 4.83809L6.42204 3.64062L8.51542 3.90534L8.93468 4.357C9.08676 4.52082 9.35729 4.52354 9.51271 4.36281L10.2516 3.5992H10.9081L11.3928 4.02626C11.5289 4.14644 11.7292 4.15905 11.8796 4.05717L12.555 3.5992H13.8148L14.3792 5.36245C14.493 5.71767 15.0136 5.72423 15.1352 5.37036L15.744 3.5992H16.394L16.4721 4.8073C16.6992 8.32156 16.6992 11.8853 16.4721 15.3997L16.3872 16.7134H15.6916V16.7135ZM18.4715 19.0936C18.4715 19.2743 18.3245 19.4213 18.1439 19.4213C17.9631 19.4213 17.8161 19.2743 17.8161 19.0936V18.9348H18.4715V19.0936Z" fill="white"/>
<path d="M12.114 13.3473H10.034C9.28187 13.3473 8.66997 12.7355 8.66997 11.9833C8.66997 11.231 9.28187 10.6191 10.034 10.6191H12.1847C13.2442 10.6191 14.1064 9.75724 14.1064 8.69751C14.1064 7.63803 13.2442 6.77588 12.1847 6.77588H11.3175C11.0977 6.77588 10.9193 6.95442 10.9193 7.17413C10.9193 7.39409 11.0977 7.57262 11.3175 7.57262H12.1847C12.805 7.57262 13.3097 8.07733 13.3097 8.69751C13.3097 9.31795 12.805 9.82265 12.1847 9.82265H10.034C8.84269 9.82265 7.87334 10.792 7.87334 11.9833C7.87334 13.1747 8.84269 14.1438 10.034 14.1438H12.114C12.334 14.1438 12.5125 13.9655 12.5125 13.7455C12.5125 13.5257 12.334 13.3473 12.114 13.3473Z" fill="white"/>
<path d="M8.52951 7.17416C8.52951 6.95445 8.35122 6.77591 8.13126 6.77591H7.25514C7.25279 6.77591 7.25069 6.77628 7.24846 6.77628C7.10108 6.25946 6.62494 5.87988 6.06138 5.87988C5.38061 5.87988 4.82682 6.4338 4.82682 7.11457C4.82682 7.79534 5.38061 8.34913 6.06138 8.34913C6.58142 8.34913 7.02714 8.0258 7.20877 7.56969C7.22398 7.57142 7.23943 7.57266 7.25514 7.57266H8.13126C8.35122 7.57266 8.52951 7.39412 8.52951 7.17416ZM6.06138 7.55263C5.81991 7.55263 5.62332 7.35604 5.62332 7.11457C5.62332 6.87297 5.81991 6.67638 6.06138 6.67638C6.30297 6.67638 6.49944 6.87297 6.49944 7.11457C6.49944 7.35604 6.30297 7.55263 6.06138 7.55263Z" fill="white"/>
<path d="M14.8193 12.8315C14.4922 12.5046 14.1643 12.9231 13.9462 13.1412C13.7276 12.9226 13.3975 12.507 13.0732 12.8315C12.7498 13.1548 13.1643 13.4859 13.3829 13.7045C13.1643 13.9231 12.7488 14.2532 13.0732 14.5775C13.3967 14.901 13.7276 14.4864 13.9462 14.2678C14.1648 14.4864 14.4948 14.902 14.8193 14.5775C15.1427 14.2541 14.7281 13.9231 14.5095 13.7045C14.7281 13.4858 15.1447 13.1569 14.8193 12.8315C14.9748 12.9869 14.6637 12.6759 14.8193 12.8315Z" fill="white"/>
<path d="M9.73749 7.57091C9.95386 7.57091 10.1357 7.38904 10.1357 7.17266C10.1357 6.95629 9.95386 6.77441 9.73749 6.77441C9.5273 6.77441 9.34938 6.94553 9.33998 7.15523C9.33009 7.37791 9.51419 7.57091 9.73749 7.57091Z" fill="white"/>
</svg>
