<svg width="20" height="20" viewBox="0 0 20 20" fill="none" xmlns="http://www.w3.org/2000/svg">
<g clip-path="url(#clip0)">
<path d="M19.2863 0H0.715172C0.320676 0 0.00088501 0.319791 0.00088501 0.714287V4.28564C0.000926862 4.48804 0.0868489 4.68093 0.237307 4.81636L7.14363 11.032V19.2854C7.14347 19.6799 7.46309 19.9998 7.85759 20C7.96854 20 8.07798 19.9743 8.17721 19.9247L12.4629 17.7818C12.705 17.6609 12.858 17.4133 12.8578 17.1426V11.032L19.7642 4.81779C19.915 4.68206 20.001 4.48858 20.0006 4.28564V0.714287C20.0006 0.319791 19.6808 0 19.2863 0ZM18.572 3.96777L11.6657 10.182C11.5149 10.3177 11.4289 10.5112 11.4293 10.7141V16.7011L8.57217 18.1297V10.7141C8.57212 10.5117 8.4862 10.3188 8.33574 10.1834L1.42942 3.96777V1.42853H18.572V3.96777Z" fill="black"/>
</g>
<defs>
<clipPath id="clip0">
<rect width="20" height="20" fill="white"/>
</clipPath>
</defs>
</svg>
