<svg width="20" height="20" viewBox="0 0 20 20" fill="none" xmlns="http://www.w3.org/2000/svg">
<path d="M3.54456 7.0599C3.32895 7.0599 3.15393 7.23476 3.15393 7.45037C3.15393 7.66598 3.32895 7.841 3.54456 7.841C3.76017 7.841 3.93518 7.66598 3.93518 7.45037C3.93518 7.23476 3.76017 7.0599 3.54456 7.0599Z" fill="white"/>
<path d="M14.4891 11.7273C14.4161 11.6541 14.3166 11.6129 14.213 11.6129C14.209 11.6136 14.0588 11.6052 13.9368 11.7273L13.6607 12.0033L12.7632 11.106C14.7438 8.3296 14.4426 4.49978 12.0035 2.0608C9.25597 -0.686706 4.80862 -0.687164 2.0608 2.0608C-0.686706 4.80816 -0.687164 9.25566 2.0608 12.0035C4.49383 14.4367 8.32213 14.7489 11.1058 12.7632L12.0033 13.6607L11.7273 13.9368C11.5749 14.0892 11.5747 14.3367 11.7273 14.4893L16.6657 19.4272C17.4288 20.1908 18.664 20.1912 19.4272 19.4274C20.1908 18.6644 20.1911 17.4291 19.4272 16.6658L14.4891 11.7273ZM12.5557 13.1084L11.7194 12.272C11.8166 12.1849 11.9116 12.0955 12.0035 12.0035C12.0955 11.9116 12.1849 11.8166 12.272 11.7195L13.1084 12.5559L12.5557 13.1084ZM2.61318 11.4511C0.170842 9.00893 0.170537 5.05566 2.61318 2.61318C5.05536 0.170842 9.00862 0.170537 11.4511 2.61318C13.8879 5.04986 13.9003 9.00221 11.4511 11.4511C8.97429 13.9282 5.02209 13.8602 2.61318 11.4511ZM14.213 12.5559L15.3176 13.6606L13.6606 15.3176L12.5559 14.213L14.213 12.5559ZM18.8748 18.875C18.4171 19.3332 17.6763 19.3334 17.2182 18.875L14.213 15.8699L15.8699 14.213L18.875 17.2183C19.3331 17.676 19.3335 18.4168 18.8748 18.875Z" fill="white"/>
<path d="M10.8989 3.16571C8.76284 1.02962 5.30228 1.0284 3.16528 3.16541C1.03361 5.29753 1.03361 8.76678 3.16528 10.8991C5.30258 13.0362 8.76116 13.0364 10.8986 10.8991C13.0307 8.76678 13.0309 5.29768 10.8989 3.16571ZM10.3462 10.3465C8.51442 12.1784 5.54993 12.1788 3.71765 10.3467C1.89055 8.51898 1.89055 5.54533 3.71765 3.71763C5.54856 1.88687 8.51503 1.88641 10.3466 3.71808C12.174 5.54549 12.1738 8.51898 10.3462 10.3465Z" fill="white"/>
<path d="M7.03209 3.12663C5.98808 3.12663 5.00724 3.53282 4.27024 4.27028C3.84299 4.69753 3.52851 5.20229 3.33564 5.77084C3.26636 5.975 3.37561 6.19686 3.57993 6.26614C3.78455 6.33557 4.00611 6.2257 4.07539 6.02184C4.22935 5.56789 4.48081 5.16445 4.82261 4.8225C5.41221 4.23274 6.19682 3.90788 7.03209 3.90788C7.24785 3.90788 7.42272 3.73302 7.42272 3.51725C7.42272 3.30149 7.24785 3.12663 7.03209 3.12663Z" fill="white"/>
</svg>
