<svg width="20" height="24" viewBox="0 0 20 24" fill="none" xmlns="http://www.w3.org/2000/svg">
<path d="M19.4333 11.6066C19.1205 11.6066 18.8667 11.8603 18.8667 12.1732V22.2686H12.7861V15.9314C12.7861 15.6185 12.5323 15.3647 12.2194 15.3647H7.78065C7.46776 15.3647 7.21399 15.6185 7.21399 15.9314V20.9564C7.21399 21.2693 7.46776 21.523 7.78065 21.523C8.09353 21.523 8.3473 21.2693 8.3473 20.9564V16.498H11.6528V22.2686H1.13331V8.39873L9.99995 1.29297L19.0789 8.56882C19.3231 8.7646 19.6797 8.72512 19.8754 8.48099C20.0711 8.23676 20.0318 7.88024 19.7876 7.68446L10.3543 0.124522C10.1473 -0.0415075 9.85262 -0.0415075 9.6456 0.124522L0.212307 7.68446C0.0781039 7.79203 0 7.95456 0 8.12664V22.8352C0 23.1481 0.253673 23.4019 0.566655 23.4019H19.4333C19.7463 23.4019 20 23.1481 20 22.8352V12.1732C20 11.8602 19.7463 11.6066 19.4333 11.6066Z" fill="white"/>
</svg>
