<svg width="20" height="21" viewBox="0 0 20 21" fill="none" xmlns="http://www.w3.org/2000/svg">
<path d="M8.31958 3.68038C8.39058 3.75138 8.48367 3.78692 8.57667 3.78692C8.66967 3.78692 8.76276 3.75138 8.83376 3.68038L9.09085 3.42329L9.34794 3.68038C9.41894 3.75138 9.51204 3.78692 9.60504 3.78692C9.69804 3.78692 9.79113 3.75138 9.86213 3.68038C10.0041 3.53838 10.0041 3.3082 9.86213 3.1662L9.60504 2.9091L9.86213 2.65201C10.0041 2.51001 10.0041 2.27983 9.86213 2.13783C9.72013 1.99583 9.48994 1.99583 9.34794 2.13783L9.09085 2.39492L8.83376 2.13783C8.69176 1.99583 8.46158 1.99583 8.31958 2.13783C8.17758 2.27983 8.17758 2.51001 8.31958 2.65201L8.57667 2.9091L8.31958 3.1662C8.17749 3.30829 8.17749 3.53838 8.31958 3.68038Z" fill="white"/>
<path d="M13.0909 4.72727C13.2918 4.72727 13.4546 4.56447 13.4546 4.36364C13.4546 4.16281 13.2918 4 13.0909 4C12.8901 4 12.7273 4.16281 12.7273 4.36364C12.7273 4.56447 12.8901 4.72727 13.0909 4.72727Z" fill="white"/>
<path d="M12 0.727273C12.2008 0.727273 12.3636 0.564467 12.3636 0.363636C12.3636 0.162806 12.2008 0 12 0C11.7992 0 11.6364 0.162806 11.6364 0.363636C11.6364 0.564467 11.7992 0.727273 12 0.727273Z" fill="white"/>
<path d="M18.1818 5.81815H7.78682L7.07927 4.35043C7.06973 4.33052 7.05836 4.31152 7.04536 4.29379C6.73427 3.86779 6.22982 3.61361 5.69609 3.61361H1.64436C0.737546 3.61361 0 4.33842 0 5.22933V17.5798C0 18.4385 0.656727 19.1422 1.50127 19.2506C1.65773 19.8929 2.23636 20.3636 2.90909 20.3636H17.4545C18.1711 20.3636 18.7646 19.8417 18.8838 19.1587C19.5343 18.9164 20 18.3026 20 17.5799V7.63633C20 6.63388 19.1843 5.81815 18.1818 5.81815ZM19.2727 17.5799C19.2727 18.1123 18.826 18.5454 18.2768 18.5454H5.52364C5.32282 18.5454 5.16 18.7082 5.16 18.9091C5.16 19.1099 5.32282 19.2727 5.52364 19.2727H18.0807C17.9546 19.4891 17.7226 19.6363 17.4546 19.6363H2.90909C2.64436 19.6363 2.40809 19.4907 2.28082 19.2727H3.64564C3.84645 19.2727 4.00927 19.1099 4.00927 18.9091C4.00927 18.7082 3.84645 18.5454 3.64564 18.5454H1.72318C1.174 18.5454 0.727273 18.1123 0.727273 17.5799V5.22933C0.727273 4.73943 1.13864 4.34088 1.64436 4.34088H5.696C5.98809 4.34088 6.26382 4.47406 6.43964 4.6987L6.97936 5.81815H5.09091C4.89009 5.81815 4.72727 5.98097 4.72727 6.18179C4.72727 6.38261 4.89009 6.54543 5.09091 6.54543H18.1818C18.7834 6.54543 19.2727 7.03479 19.2727 7.63633V17.5799Z" fill="white"/>
</svg>
