<svg width="30" height="30" viewBox="0 0 30 30" fill="none" xmlns="http://www.w3.org/2000/svg">
<g clip-path="url(#clip0)">
<path d="M27.6888 18.8458C27.2761 18.8458 26.9417 19.1802 26.9417 19.5929V26.2269C26.9402 27.4643 25.9377 28.4672 24.7002 28.4683H3.73578C2.4983 28.4672 1.49577 27.4643 1.49431 26.2269V6.75674C1.49577 5.51956 2.4983 4.51674 3.73578 4.51528H10.3697C10.7824 4.51528 11.1169 4.18081 11.1169 3.76812C11.1169 3.35573 10.7824 3.02097 10.3697 3.02097H3.73578C1.67351 3.0233 0.00233486 4.69448 0 6.75674V26.2271C0.00233486 28.2894 1.67351 29.9606 3.73578 29.9629H24.7002C26.7625 29.9606 28.4336 28.2894 28.436 26.2271V19.5929C28.436 19.1802 28.1015 18.8458 27.6888 18.8458Z" fill="#8B8B8B"/>
<path d="M28.1401 1.09851C26.827 -0.214558 24.6982 -0.214558 23.3851 1.09851L10.0554 14.4282C9.96406 14.5196 9.8981 14.6328 9.86366 14.7572L8.11076 21.0855C8.03867 21.345 8.11193 21.6228 8.30222 21.8134C8.4928 22.0037 8.77065 22.0769 9.03011 22.0051L15.3585 20.252C15.4828 20.2175 15.596 20.1516 15.6874 20.0602L29.0168 6.73019C30.3278 5.41625 30.3278 3.28919 29.0168 1.97525L28.1401 1.09851ZM11.6834 14.9139L22.5927 4.00424L26.1111 7.52259L15.2014 18.4322L11.6834 14.9139ZM10.9806 16.3241L13.7915 19.1353L9.90335 20.2126L10.9806 16.3241ZM27.9603 5.67367L27.1679 6.46606L23.6493 2.94743L24.4419 2.15503C25.1713 1.42568 26.3539 1.42568 27.0833 2.15503L27.9603 3.03177C28.6885 3.762 28.6885 4.94373 27.9603 5.67367Z" fill="#8B8B8B"/>
</g>
<defs>
<clipPath id="clip0">
<rect width="30" height="30" fill="white"/>
</clipPath>
</defs>
</svg>
