<svg width="15" height="15" viewBox="0 0 15 15" fill="none" xmlns="http://www.w3.org/2000/svg">
<g opacity="0.8">
<path d="M14.6093 7.15424L7.60505 0.150402C7.50508 0.0502745 7.38979 0 7.2595 0C7.12936 0 7.01423 0.0502745 6.91405 0.150402L6.16246 0.901887C6.06228 1.00207 6.01227 1.11715 6.01227 1.2476C6.01227 1.37805 6.06228 1.49312 6.16246 1.59331L12.0694 7.50011L6.16251 13.4071C6.06233 13.5072 6.01232 13.6225 6.01232 13.7526C6.01232 13.883 6.06233 13.9983 6.16251 14.0985L6.9141 14.8498C7.01423 14.95 7.12936 15 7.25955 15C7.39 15 7.50513 14.9499 7.60505 14.8498L14.6093 7.84587C14.7094 7.74574 14.7594 7.6304 14.7594 7.50016C14.7594 7.36992 14.7094 7.25463 14.6093 7.15424Z" fill="black"/>
<path d="M8.9879 7.50016C8.9879 7.36992 8.93805 7.25458 8.8375 7.15424L1.83372 0.150402C1.73359 0.0502745 1.6183 0 1.48806 0C1.35782 0 1.24248 0.0502745 1.14235 0.150402L0.39092 0.901939C0.290581 1.00212 0.24057 1.1172 0.24057 1.24765C0.24057 1.3781 0.290581 1.49318 0.39092 1.59336L6.29772 7.50016L0.39092 13.4071C0.290581 13.5072 0.24057 13.6225 0.24057 13.7526C0.24057 13.883 0.290581 13.9983 0.39092 14.0985L1.1423 14.8498C1.24248 14.95 1.35777 15 1.48801 15C1.61825 15 1.73354 14.9499 1.83372 14.8498L8.8375 7.84587C8.93805 7.74574 8.9879 7.6304 8.9879 7.50016Z" fill="black"/>
</g>
</svg>
