<svg width="15" height="15" viewBox="0 0 15 15" fill="none" xmlns="http://www.w3.org/2000/svg">
<g clip-path="url(#clip0)">
<path d="M15 1.8535C15.0012 1.6546 14.9226 1.46354 14.7818 1.32302L13.7241 0.259808C13.4322 -0.0336694 12.9577 -0.0350125 12.6642 0.256809L11.2694 1.64361C11.2599 1.64917 11.2507 1.65526 11.2419 1.66185L2.73941 10.1228C2.7237 10.1402 2.71058 10.1597 2.70043 10.1808C2.70043 10.1823 2.69793 10.1831 2.69718 10.1846L2.69443 10.1896C2.69093 10.1965 2.68669 10.2028 2.68369 10.21L0.769151 13.8427L0.0767498 14.5311C-0.0227626 14.6267 -0.0259173 14.7849 0.0696908 14.8844C0.165299 14.9839 0.323469 14.9871 0.422982 14.8915C0.425043 14.8895 0.427073 14.8875 0.429072 14.8854L1.10123 14.2175L4.76664 12.3095C4.80115 12.2977 4.83267 12.2784 4.85884 12.253L13.1837 3.96966L13.536 4.32398L10.523 7.31822C10.4251 7.41558 10.4248 7.57381 10.5221 7.67167C10.6195 7.76952 10.7777 7.7699 10.8756 7.67254L14.0655 4.50189C14.163 4.40431 14.163 4.24614 14.0655 4.14857L13.5375 3.61733L14.7783 2.38296C14.9202 2.24334 15.0001 2.05256 15 1.8535ZM1.55925 13.4157L2.98054 10.7193L4.26289 12.0074L1.55925 13.4157ZM4.68443 11.7215L3.26989 10.3L11.4158 2.19333L12.8303 3.61512L4.68443 11.7215ZM14.4275 2.02767L14.427 2.02867L13.1869 3.26179L11.7766 1.84451L13.0165 0.611131C13.1141 0.513586 13.2722 0.513586 13.3698 0.611131L14.4275 1.67434C14.5251 1.77192 14.5251 1.93009 14.4275 2.02767Z" fill="black"/>
<line y1="14.9" x2="15" y2="14.9" stroke="black" stroke-width="0.2"/>
</g>
<defs>
<clipPath id="clip0">
<rect width="15" height="15" fill="white"/>
</clipPath>
</defs>
</svg>
