<svg width="10" height="10" viewBox="0 0 10 10" fill="none" xmlns="http://www.w3.org/2000/svg">
<path d="M5.00001 2.22224C5.61366 2.22224 6.11113 1.72477 6.11113 1.11112C6.11113 0.497465 5.61366 0 5.00001 0C4.38635 0 3.88889 0.497465 3.88889 1.11112C3.88889 1.72477 4.38635 2.22224 5.00001 2.22224Z" fill="black" fill-opacity="0.7"/>
<path d="M5.00001 6.11116C5.61366 6.11116 6.11113 5.61369 6.11113 5.00004C6.11113 4.38638 5.61366 3.88892 5.00001 3.88892C4.38635 3.88892 3.88889 4.38638 3.88889 5.00004C3.88889 5.61369 4.38635 6.11116 5.00001 6.11116Z" fill="black" fill-opacity="0.7"/>
<path d="M5.00001 9.99993C5.61366 9.99993 6.11113 9.50247 6.11113 8.88882C6.11113 8.27517 5.61366 7.77771 5.00001 7.77771C4.38635 7.77771 3.88889 8.27517 3.88889 8.88882C3.88889 9.50247 4.38635 9.99993 5.00001 9.99993Z" fill="black" fill-opacity="0.7"/>
</svg>
