<svg width="20" height="19" viewBox="0 0 20 19" fill="none" xmlns="http://www.w3.org/2000/svg">
<path d="M18.3333 10.2173V3.33336C18.3333 2.41418 17.5859 1.66668 16.6666 1.66668H8.9225L7.37789 0.12207C7.29977 0.0439453 7.19398 0 7.08328 0H1.66668C0.747461 0 0 0.7475 0 1.66668V13.3334C0 14.2525 0.747461 15 1.66668 15H11.011C11.557 16.9209 13.3232 18.3334 15.4167 18.3334C17.9439 18.3334 20 16.2773 20 13.75C20 12.3298 19.3506 11.0586 18.3333 10.2173ZM10.8545 14.1667H1.66668C1.2073 14.1667 0.833359 13.7927 0.833359 13.3334V1.66668C0.833359 1.2073 1.2073 0.833359 1.66668 0.833359H6.91082L8.45543 2.37797C8.53356 2.45609 8.63934 2.50004 8.75004 2.50004H16.6667C17.1261 2.50004 17.5 2.87398 17.5 3.33336V9.67266C16.8741 9.35156 16.1671 9.16668 15.4167 9.16668C12.8894 9.16668 10.8334 11.2227 10.8334 13.75C10.8333 13.8907 10.842 14.0293 10.8545 14.1667ZM15.4167 17.5C13.3488 17.5 11.6667 15.8179 11.6667 13.75C11.6667 11.6821 13.3488 10 15.4167 10C17.4845 10 19.1667 11.6821 19.1667 13.75C19.1667 15.8179 17.4845 17.5 15.4167 17.5Z" fill="black"/>
<path d="M17.0833 13.3334H15.8333V12.0834C15.8333 11.8531 15.6469 11.6667 15.4166 11.6667C15.1863 11.6667 15 11.8531 15 12.0834V13.3334H13.75C13.5197 13.3334 13.3333 13.5198 13.3333 13.7501C13.3333 13.9804 13.5197 14.1668 13.75 14.1668H15V15.4168C15 15.6471 15.1864 15.8335 15.4167 15.8335C15.647 15.8335 15.8334 15.6471 15.8334 15.4168V14.1668H17.0834C17.3137 14.1668 17.5 13.9804 17.5 13.7501C17.5 13.5198 17.3136 13.3334 17.0833 13.3334Z" fill="black"/>
</svg>
