<svg width="20" height="27" viewBox="0 0 20 27" fill="none" xmlns="http://www.w3.org/2000/svg">
<path d="M15.5556 14.6814V5C15.5556 4.85245 15.497 4.71135 15.3928 4.60719L10.9483 0.16276C10.8442 0.0585938 10.7031 0 10.5555 0H2.22219C0.996615 0 0 0.996615 0 2.22224V18.8889C0 20.1145 0.996615 21.1111 2.22224 21.1111H7.80594C8.08792 24.221 10.7067 26.6667 13.8889 26.6667C17.2586 26.6667 20 23.9253 20 20.5556C20 17.7642 18.1167 15.4093 15.5556 14.6814ZM11.1111 1.89672L13.6589 4.44448H12.2222C11.6097 4.44448 11.1111 3.94589 11.1111 3.33339V1.89672H11.1111ZM2.22224 20C1.60974 20 1.11115 19.5014 1.11115 18.8889V2.22224C1.11115 1.60974 1.60974 1.11115 2.22224 1.11115H10V3.33333C10 4.55891 10.9966 5.55557 12.2222 5.55557H14.4445V14.4726C14.2613 14.456 14.0765 14.4445 13.8889 14.4445C10.7067 14.4445 8.08792 16.8901 7.80594 20.0001H2.22224V20ZM13.8889 25.5556C11.1317 25.5556 8.88891 23.3127 8.88891 20.5556C8.88891 17.7984 11.1318 15.5556 13.8889 15.5556C16.646 15.5556 18.8889 17.7984 18.8889 20.5556C18.8889 23.3127 16.646 25.5556 13.8889 25.5556Z" fill="black"/>
<path d="M16.1111 20.0001H14.4444V18.3334C14.4444 18.0263 14.1959 17.7778 13.8889 17.7778C13.5818 17.7778 13.3333 18.0263 13.3333 18.3334V20.0001H11.6666C11.3595 20.0001 11.1111 20.2486 11.1111 20.5556C11.1111 20.8627 11.3595 21.1112 11.6666 21.1112H13.3333V22.7779C13.3333 23.085 13.5818 23.3335 13.8889 23.3335C14.1959 23.3335 14.4444 23.085 14.4444 22.7779V21.1112H16.1111C16.4182 21.1112 16.6667 20.8627 16.6667 20.5556C16.6667 20.2486 16.4182 20.0001 16.1111 20.0001Z" fill="black"/>
</svg>
