<svg width="25" height="25" viewBox="0 0 25 25" fill="none" xmlns="http://www.w3.org/2000/svg">
<g clip-path="url(#clip0)">
<path d="M12.4984 7.8125L12.4961 13.2782C12.4961 13.4858 12.5785 13.6841 12.725 13.8306L16.635 17.7399L17.7398 16.6351L14.0586 12.9547L14.0608 7.8125H12.4984Z" fill="black"/>
<path d="M14.0625 1.56247C8.56336 1.56247 4.01212 5.64649 3.24987 10.9375H0L3.90625 14.8437L7.81249 10.9375H4.82862C5.57604 6.51071 9.42622 3.12499 14.0625 3.12499C19.2322 3.12499 23.4375 7.3303 23.4375 12.5C23.4375 17.6697 19.2322 21.875 14.0625 21.875C11.1565 21.875 8.4618 20.5597 6.66962 18.2663L5.43824 19.2276C7.52867 21.9025 10.672 23.4375 14.0625 23.4375C20.0935 23.4375 25 18.5302 25 12.5C25 6.46975 20.0935 1.56251 14.0625 1.56247Z" fill="black"/>
</g>
<defs>
<clipPath id="clip0">
<rect width="25" height="25" fill="white"/>
</clipPath>
</defs>
</svg>
