<svg width="25" height="25" viewBox="0 0 25 25" fill="none" xmlns="http://www.w3.org/2000/svg">
<g clip-path="url(#clip0)">
<path d="M22.1354 0H2.86465C1.28441 0 0 1.28441 0 2.86465V22.1354C0 23.7156 1.28441 25 2.86465 25H22.1354C23.7156 25 25 23.7156 25 22.1354V2.86465C25 1.28441 23.7156 0 22.1354 0V0Z" fill="black"/>
<path d="M17.1032 15.6301C17.5104 16.0375 17.5104 16.6969 17.1032 17.1032C16.9001 17.3063 16.6334 17.4083 16.3666 17.4083C16.0999 17.4083 15.8333 17.3063 15.6302 17.1032L12.5 13.9728L9.36985 17.1032C9.16672 17.3063 8.90007 17.4083 8.63342 17.4083C8.36659 17.4083 8.09994 17.3063 7.89681 17.1032C7.48959 16.6969 7.48959 16.0375 7.89681 15.6301L11.0271 12.5L7.89681 9.36983C7.48959 8.96242 7.48959 8.30305 7.89681 7.89678C8.30422 7.48956 8.96244 7.48956 9.36985 7.89678L12.5 11.0271L15.6302 7.89678C16.0376 7.48956 16.6958 7.48956 17.1032 7.89678C17.5104 8.30305 17.5104 8.96242 17.1032 9.36983L13.9729 12.5L17.1032 15.6301Z" fill="#FAFAFA"/>
</g>
<defs>
<clipPath id="clip0">
<rect width="25" height="25" fill="white"/>
</clipPath>
</defs>
</svg>
