<svg width="25" height="25" viewBox="0 0 25 25" fill="none" xmlns="http://www.w3.org/2000/svg">
<g clip-path="url(#clip0)">
<path d="M21.8749 22.3214H3.12495C2.97023 22.3214 2.82675 22.2413 2.74527 22.1096C2.66379 21.9778 2.65646 21.8136 2.72565 21.6755L12.1006 2.9255C12.2525 2.62298 12.7475 2.62298 12.8992 2.9255L22.2742 21.6755C22.3437 21.8136 22.3361 21.978 22.2546 22.1096C22.1731 22.2413 22.0296 22.3214 21.8749 22.3214ZM3.8473 21.4285H21.1524L12.4999 4.1234L3.8473 21.4285Z" fill="black"/>
<path d="M15.1785 0.446381H9.82137V5.80351H15.1785V0.446381Z" fill="white"/>
<path d="M15.1785 6.25003H9.82138C9.57471 6.25003 9.37499 6.05031 9.37499 5.80365V0.446384C9.37499 0.199715 9.57471 0 9.82138 0H15.1785C15.4252 0 15.6249 0.199715 15.6249 0.446384V5.80351C15.625 6.05018 15.4252 6.25003 15.1785 6.25003ZM10.2679 5.35713H14.7321V0.892899H10.2679V5.35713Z" fill="black"/>
<path d="M5.80352 19.1964H0.446384V24.5535H5.80352V19.1964Z" fill="white"/>
<path d="M5.80352 25H0.446384C0.199715 25 0 24.8003 0 24.5536V19.1965C0 18.9498 0.199715 18.7501 0.446384 18.7501H5.80352C6.05019 18.7501 6.2499 18.9498 6.2499 19.1965V24.5536C6.25003 24.8002 6.05019 25 5.80352 25ZM0.892899 24.1071H5.35713V19.6429H0.892899V24.1071Z" fill="black"/>
<path d="M24.5535 19.1964H19.1964V24.5535H24.5535V19.1964Z" fill="white"/>
<path d="M24.5535 25H19.1964C18.9497 25 18.75 24.8003 18.75 24.5536V19.1965C18.75 18.9498 18.9497 18.7501 19.1964 18.7501H24.5535C24.8002 18.7501 24.9999 18.9498 24.9999 19.1965V24.5536C25 24.8002 24.8002 25 24.5535 25ZM19.6429 24.1071H24.1071V19.6429H19.6429V24.1071Z" fill="black"/>
</g>
<defs>
<clipPath id="clip0">
<rect width="25" height="25" fill="white"/>
</clipPath>
</defs>
</svg>
