<svg width="25" height="25" viewBox="0 0 25 25" fill="none" xmlns="http://www.w3.org/2000/svg">
<g clip-path="url(#clip0)">
<path d="M13.3291 13.3886V12.342V11.6114H11.5519V12.342V13.3886H13.3291Z" fill="black"/>
<path d="M24.5848 0.94812H22.8076V2.72533H24.5848V0.94812Z" fill="black"/>
<path d="M0.296204 24.0519H2.07342V22.2747H1.34278H0.296204V24.0519Z" fill="black"/>
<path d="M1.83645 11.6113C1.69822 11.5126 1.5205 11.4534 1.34278 11.4534C0.84911 11.4534 0.454174 11.8483 0.454174 12.342C0.454174 12.8356 0.84911 13.2306 1.34278 13.2306C1.8167 13.2306 2.23139 12.8356 2.23139 12.3617C2.23139 12.3222 2.25113 12.2827 2.29063 12.2827L1.93518 11.6113C1.89569 11.6311 1.8562 11.6311 1.83645 11.6113Z" fill="white"/>
<path d="M22.8075 12.342C22.8075 12.8356 23.3012 13.2306 23.7751 13.2306C24.2688 13.2306 24.7032 12.8356 24.7032 12.342C24.7032 11.8483 24.3281 11.4534 23.8344 11.4534C23.6567 11.4534 23.4987 11.5126 23.3407 11.6113C23.3012 11.6311 23.2815 11.6311 23.242 11.6113L22.8273 12.263C22.8668 12.263 22.8075 12.3025 22.8075 12.342Z" fill="white"/>
<path d="M13.4278 13.6847H11.4531C11.3347 13.6847 11.2557 13.6057 11.2557 13.4873V11.5126C11.2557 11.3941 11.3347 11.3151 11.4531 11.3151H13.4278C13.5463 11.3151 13.6253 11.3941 13.6253 11.5126V13.4873C13.6253 13.6057 13.5463 13.6847 13.4278 13.6847ZM11.6506 13.2898H13.2304V11.7101H11.6506V13.2898Z" fill="black"/>
<path d="M24.6835 3.02153H22.7088C22.5903 3.02153 22.5114 2.94255 22.5114 2.82407V0.849385C22.5114 0.730904 22.5903 0.651917 22.7088 0.651917H24.6835C24.802 0.651917 24.881 0.730904 24.881 0.849385V2.82407C24.881 2.94255 24.802 3.02153 24.6835 3.02153ZM22.9063 2.6266H24.486V1.04685H22.9063V2.6266Z" fill="black"/>
<path d="M13.5858 12.5395C13.4673 12.5395 13.3883 12.4605 13.3883 12.342C13.3883 12.2235 13.4673 12.1445 13.5858 12.1445C18.878 12.1445 23.2025 8.13592 23.6369 2.80428C23.6369 2.6858 23.7357 2.60681 23.8542 2.62656C23.9726 2.62656 24.0516 2.72529 24.0319 2.84377C23.5777 8.37288 19.0952 12.5395 13.5858 12.5395Z" fill="black"/>
<path d="M2.17215 24.3481H0.197468C0.0789872 24.3481 0 24.2691 0 24.1506V22.1759C0 22.0574 0.0789872 21.9785 0.197468 21.9785H2.17215C2.29063 21.9785 2.36962 22.0574 2.36962 22.1759V24.1506C2.36962 24.2691 2.29063 24.3481 2.17215 24.3481ZM0.394936 23.9531H1.97468V22.3734H0.394936V23.9531Z" fill="black"/>
<path d="M1.34278 22.2351C1.34278 22.2351 1.32303 22.2351 1.34278 22.2351C1.2243 22.2351 1.14531 22.1364 1.14531 22.0179C1.57974 16.4493 5.8648 12.3617 11.3544 12.3025C11.4729 12.3025 11.5519 12.3815 11.5519 12.5C11.5519 12.6184 11.4729 12.6974 11.3544 12.6974C6.08202 12.7567 1.95493 16.6863 1.54025 22.0574C1.54025 22.1562 1.44152 22.2351 1.34278 22.2351Z" fill="black"/>
<path d="M1.32304 13.5465C0.671393 13.5465 0.138229 13.0134 0.138229 12.342C0.138229 11.6706 0.651646 11.1572 1.32304 11.1572C1.54025 11.1572 1.69823 11.2559 1.83645 11.3546C1.8562 11.3744 1.89569 11.3941 1.91544 11.4139C2.01418 11.4731 2.03392 11.5916 1.97468 11.6903C1.91544 11.7891 1.79696 11.8088 1.69823 11.7496C1.67848 11.7298 1.63899 11.7101 1.61924 11.6903C1.50076 11.6113 1.42177 11.5521 1.32304 11.5521C0.888608 11.5521 0.533165 11.9075 0.533165 12.342C0.533165 12.7962 0.888608 13.1516 1.32304 13.1516C1.75747 13.1516 2.07342 12.8554 2.11291 12.4407C2.11291 12.3815 2.1524 12.3222 2.21164 12.2827C2.27088 12.2432 2.33012 12.2432 2.38936 12.263L2.4486 12.2827H11.3544C11.4729 12.2827 11.5519 12.3617 11.5519 12.4802C11.5519 12.5987 11.4729 12.6777 11.3544 12.6777H2.46835C2.33012 13.1911 1.87595 13.5465 1.32304 13.5465Z" fill="black"/>
<path d="M23.8344 13.5466C23.2815 13.5466 22.8076 13.1911 22.6891 12.6975H13.5266C13.4081 12.6975 13.3291 12.6185 13.3291 12.5C13.3291 12.3815 13.4081 12.3025 13.5266 12.3025H22.7286C22.7681 12.2828 22.8076 12.263 22.8471 12.263C22.9458 12.263 23.0445 12.342 23.0445 12.4605C23.0643 12.8554 23.4 13.1516 23.8344 13.1516C24.2688 13.1516 24.6243 12.7962 24.6243 12.342C24.6243 11.9076 24.2688 11.5521 23.8344 11.5521C23.6764 11.5521 23.4 11.6311 23.2618 11.7101C23.163 11.7694 23.0445 11.7299 22.9853 11.6509C22.9261 11.5521 22.9458 11.4337 23.0445 11.3744C23.2223 11.2559 23.5777 11.1375 23.8147 11.1375C24.4861 11.1375 24.9995 11.6509 24.9995 12.3223C25.0192 13.0134 24.4861 13.5466 23.8344 13.5466Z" fill="black"/>
</g>
<defs>
<clipPath id="clip0">
<rect width="25" height="25" fill="white"/>
</clipPath>
</defs>
</svg>
